<svg enable-background="new 0 0 576 576" viewBox="0 0 576 576" xmlns="http://www.w3.org/2000/svg"><path d="m496.5 474c3.5 2 3.6 5.4 0 7.4l-111.7 64.4c-3.5 2.1-9.3 2.1-12.8 0l-80.9-43.3-71.5 37.8c-8.2 4.3-18 3.9-25.8-1.1l-64.7-41.5c-4.8-3.1-4.5-10.3.6-12.9l71.1-36.5-55.6-31.7c-3.6-2-3.6-5.4 0-7.4l111.7-64.4c3.5-2.1 9.3-2.1 12.8 0z" opacity=".1"/><path d="m426.9 488s.1 0 0 0c2.4-1.3 34.7-16.3 38-17-1.6-.9-3.2-1.8-4.7-2.7-.4-.2-.7-.4-1.1-.6-.1-.1-.4-.3-.5-.3-.3-.1-30.9 11.4-43.9 20.4-.5.3 0 0-2 1.3-.3.2-.7.4-1 .6-.6.4-1.3.8-1.9 1.2-.1.1-.3.2-.4.3s-.3.2-.4.3c-1.5 1-2.9 1.9-4.2 2.8-2 1.4-3.9 2.7-5.6 4-15.7 11.3-30.7 20.6-31.2 21.1l1.7 1 4.7 2.7c.1-.1 21.5-13.7 23.6-15.3 1.9-1.5 4-3.1 6.3-4.8.4-.3.8-.6 1.3-.9 3.3-2.3 6.6-4.6 9.8-6.7.1-.1.3-.2.4-.3s.3-.2.4-.3c.6-.4 1.3-.8 1.9-1.2.3-.2.7-.4 1-.6 2.2-1.4 4.6-2.8 7-4.3.2-.3.6-.6.8-.7z" fill="#4d555e"/><path d="m426 488.5c-2.4 1.4-4.8 2.8-7 4.3-19.4 12.3-44 29.6-44.7 30.2v4.2l51.7-30.1 38.8-22.4v-3.7c-.6.1-16.5 6.3-31.8 13.6-2.2 1.2-4.5 2.5-7 3.9z" fill="#66717d"/><path d="m374.3 523-6.3-3.7v4.2l6.3 3.7z" fill="#4d555e"/><path d="m421.6 421.1-6.4-3.7.2 70.8 6.3 3.7z" fill="#4d555e"/><path d="m435.6 412.9-6.3-3.7-14 8.2 6.4 3.7z" fill="#999"/><path d="m421.6 421.1.2 70.9c2.2-1.4 4.6-2.8 7-4.3 2.4-1.4 4.8-2.7 7-3.8l-.2-70.9-1.5.9-11 6.3z" fill="#66717d"/><path d="m431.5 350.2-4.6-2.6-7.8 4.5 4.5 2.7z" fill="#999"/><path d="m423.6 354.8-4.5-2.7v64.2l4.6 2.6z" fill="#4d555e"/><path d="m423.6 354.8.1 64.1 7.9-4.5-.1-64.2z" fill="#66717d"/><path d="m252.8 388.6c.1-.1.1-.1 0 0 2.4-1.3 34.7-16.3 38-17-1.6-.9-3.2-1.8-4.7-2.7-.4-.2-.7-.4-1.1-.6-.1-.1-.4-.3-.5-.3-.3-.1-30.9 11.4-43.9 20.4-.5.3 0 0-2 1.3-.3.2-.7.4-1 .6-.6.4-1.3.8-1.9 1.2-.1.1-.3.2-.4.3s-.3.2-.4.3c-1.5 1-2.9 1.9-4.2 2.8-2 1.4-3.9 2.7-5.6 4-15.7 11.3-30.7 20.6-31.2 21.1l1.7 1 4.7 2.7c.1-.1 21.5-13.7 23.6-15.3 1.9-1.5 4-3.1 6.3-4.8.4-.3.8-.6 1.3-.9 3.3-2.3 6.6-4.6 9.8-6.7.1-.1.3-.2.4-.3s.3-.2.4-.3c.6-.4 1.3-.8 1.9-1.2.3-.2.7-.4 1-.6 2.2-1.4 4.6-2.8 7-4.3.2-.3.6-.6.8-.7z" fill="#4d555e"/><path d="m251.9 389c-2.4 1.4-4.8 2.8-7 4.3-19.4 12.3-44 29.6-44.7 30.2v4.2l51.7-30.1 38.8-22.4v-3.7c-.6.1-16.5 6.3-31.8 13.6-2.2 1.2-4.5 2.6-7 3.9z" fill="#66717d"/><path d="m200.2 423.5-6.3-3.6v4.2l6.4 3.7z" fill="#4d555e"/><path d="m247.5 321.6-6.4-3.7.2 70.9 6.4 3.7z" fill="#4d555e"/><path d="m261.5 313.5-6.3-3.7-14 8.1 6.4 3.7z" fill="#999"/><path d="m247.5 321.6.2 70.9c2.2-1.4 4.6-2.8 7-4.3 2.4-1.4 4.8-2.7 7-3.8l-.2-70.9-1.5.9-11 6.3z" fill="#66717d"/><path d="m249.5 255.3-4.5-2.6.1 64.1 4.5 2.7z" fill="#4d555e"/><path d="m249.5 255.3.1 64.2 7.9-4.6-.1-64.1z" fill="#66717d"/><path d="m496.5 344.2c3.5 2 3.6 5.4 0 7.4l-111.6 64.4c-3.5 2.1-9.3 2.1-12.8 0l-226.8-129.1c-3.6-2-3.6-5.4 0-7.4l111.7-64.4c3.5-2.1 9.3-2.1 12.8 0z" fill="#fff"/><path d="m142.6 283.1c0 1.4.9 2.7 2.7 3.7l226.7 129.2c.2.1.4.2.7.3.1 0 .2.1.2.1.2.1.3.1.5.2.3.1.6.2 1 .3.1 0 .2.1.3.1.2 0 .4.1.6.1.1 0 .2.1.4.1s.3.1.5.1c.1 0 .3 0 .4.1.2 0 .3 0 .5.1h.4.5.4.5.4.6.3c.3 0 .7-.1 1-.1.1 0 .2 0 .3-.1.2 0 .3-.1.5-.1.1 0 .2-.1.4-.1s.3-.1.5-.1c.1 0 .2-.1.3-.1.2-.1.5-.2.7-.3.1 0 .2-.1.3-.1.3-.1.6-.3.9-.4l111.7-64.4c.1-.1.2-.1.3-.2s.2-.1.3-.2.2-.1.3-.2.2-.2.3-.2.1-.1.2-.1l.4-.4c.1-.1.1-.1.1-.2.1-.1.1-.2.2-.3 0-.1.1-.1.1-.2.1-.1.1-.2.1-.3s.1-.1.1-.2.1-.2.1-.3 0-.2.1-.2c0-.1 0-.2 0-.3s0-.2 0-.3v11 .1.2.3c0 .1 0 .1-.1.2 0 .1 0 .2-.1.3v.1c0 .1-.1.1-.1.2s-.1.2-.1.3v.1s-.1.1-.1.1c-.1.1-.1.2-.2.3 0 0 0 .1-.1.1 0 0-.1.1-.1.1-.1.1-.2.3-.4.4 0 0-.1.1-.1.1s0 0-.1 0c-.1.1-.2.2-.3.2-.1.1-.2.1-.3.2s-.2.1-.3.2-.2.1-.2.2c0 0-.1 0-.1.1l-111.9 64.1c-.3.2-.6.3-.9.4-.1 0-.2.1-.3.1-.2.1-.5.2-.7.3-.1 0-.1 0-.2.1h-.1c-.2 0-.3.1-.5.1-.1 0-.2.1-.4.1s-.3.1-.5.1c-.1 0-.2 0-.3.1-.3.1-.7.1-1 .1h-.1c-.1 0-.2 0-.2 0-.2 0-.4 0-.6 0h-.1c-.1 0-.2 0-.2 0-.2 0-.3 0-.5 0-.1 0-.1 0-.2 0s-.2 0-.2 0c-.2 0-.3 0-.5 0-.1 0-.1 0-.2 0s-.1 0-.2 0c-.2 0-.3 0-.5-.1-.1 0-.1 0-.2 0s-.1 0-.2 0c-.2 0-.3-.1-.5-.1-.1 0-.2 0-.2 0-.1 0-.1 0-.1 0-.2 0-.4-.1-.6-.1-.1 0-.2 0-.2-.1h-.1c-.3-.1-.7-.2-1-.3-.1-.1-.3-.1-.4-.2-.1 0-.2-.1-.2-.1-.2-.1-.5-.2-.7-.3l-226.8-129.2c-1.8-1-2.7-2.4-2.7-3.7z" fill="#b8bcbc"/><path d="m310.5 297.2c0-.4-.2-.8-.7-1.1l-68-39.2c-1-.6-2.6-.5-3.7.1l-27.9 16.2c-.6.4-.9.8-.9 1.2v.1.7c0 .4.2.7.7 1l68 39.2c1 .6 2.6.5 3.7-.1l27.9-15.4c.6-.3.9-.8.9-1.2z" fill="#4d555e"/><path d="m308.8 295.6-66.6-38.7c-.9-.5-3.2-.4-4.2.3l-27.2 15.8c-2.3 1.2-.6 1.9-.1 2.2l66.8 38.9c.9.5 2.6.5 3.6-.1l27.3-15c3.5-2.3.9-3.2.4-3.4z" fill="#75818f"/><g fill="#1c2936"><path d="m237.2 262.1 3.4 1.9 1.5-.8-3.5-1.9z"/><path d="m241.8 264.7 3.4 1.9 1.5-.8-3.5-1.9z"/><path d="m246.4 267.2 3.4 2 1.5-.8-3.5-1.9z"/><path d="m241.8 269.5 3.2 1.8 2.7-1.6-3.2-1.7z"/><path d="m235.3 270.6 3.2 1.8 2.7-1.5-3.1-1.8z"/><path d="m260.5 273.6-3.5-2-1.4.8 3.5 2z"/><path d="m239.8 273.1 3.2 1.8 2.7-1.5-3.2-1.8z"/><path d="m232.3 273.7 3.2 1.8 2.7-1.5-3.2-1.8z"/><path d="m221.9 274.4-3.2-1.8h-.1l-3.2 1.8 3.2 1.8h.1z"/><path d="m260.2 275 3.5 2 1.4-.8-3.5-2z"/><path d="m255.2 277 3.2 1.8 2.7-1.5-3.2-1.8z"/><path d="m230.1 277.3 3.2 1.8 2.7-1.5-3.2-1.8z"/><path d="m248.7 278.2 3.2 1.8 2.8-1.6-3.2-1.8z"/><path d="m230.9 279.5-3.2-1.8h-.1l-3.2 1.8 3.2 1.8h.1z"/><path d="m259.1 281-3.2-1.8-2.7 1.5 3.2 1.8z"/><path d="m264.1 282 3.2 1.8 2.7-1.5-3.2-1.8z"/><path d="m239.1 282.3 3.1 1.8 2.8-1.5-3.2-1.8z"/><path d="m236.2 282.5-4-2.3h-.1l-3.2 1.8 4 2.3h.1z"/><path d="m278.9 283.9-3.5-1.9-1.4.8 3.5 1.9z"/><path d="m257.7 283.2 3.2 1.8 2.7-1.5-3.2-1.8z"/><path d="m274.4 284.8-3.2-1.8-2.7 1.5 3.2 1.8z"/><path d="m268.1 286-3.2-1.8-2.8 1.5 3.2 1.8z"/><path d="m278.9 287.3-3.2-1.8-2.7 1.5 3.2 1.8z"/><path d="m248 287.4 3.2 1.7 2.7-1.5-3.2-1.8z"/><path d="m288.1 289.1-3.5-1.9-1.4.8 3.5 1.9z"/><path d="m266.6 288.2 3.2 1.8 2.7-1.5-3.2-1.8z"/><path d="m283.3 289.8-3.2-1.8-2.7 1.5 3.2 1.8z"/><path d="m252.5 289.9 3.2 1.8 2.7-1.6-3.2-1.8z"/><path d="m287.8 290.5 3.5 2 1.4-.8-3.5-1.9z"/><path d="m277 291-3.2-1.8-2.7 1.5 3.2 1.8z"/><path d="m263.5 291.3 3.2 1.7 2.7-1.5-3.2-1.8z"/><path d="m287.8 292.3-3.2-1.8-2.7 1.5 3.1 1.8z"/><path d="m256.9 292.4 3.2 1.8 2.8-1.5-3.2-1.8z"/><path d="m292.4 293.1 3.5 2 1.4-.8-3.5-1.9z"/><path d="m275.6 293.2 3.1 1.8 2.8-1.5-3.2-1.8z"/><path d="m273.9 294-3.2-1.8-2.8 1.6 3.2 1.8z"/><path d="m292.2 294.8-3.2-1.8-2.7 1.5 3.2 1.8z"/><path d="m261.4 294.9 3.2 1.8 2.7-1.5-3.2-1.8z"/><path d="m286 296-3.2-1.8-2.8 1.6 3.2 1.8z"/><path d="m265.9 297.4 3.2 1.8 2.7-1.5-3.2-1.8z"/><path d="m264.5 298-.2.3z"/><path d="m264 298.1-4-2.3h-.1l-3.2 1.8 4 2.3h.1z"/><path d="m284.5 298.3 3.2 1.8 2.7-1.5-3.2-1.8z"/><path d="m270.4 299.9 3.2 1.8 2.7-1.5-3.2-1.8z"/><path d="m269 300.5-.2.3z"/><path d="m268.5 300.6-3.2-1.8h-.1l-3.2 1.8 3.2 1.8h.1z"/><path d="m281.3 301.3 3.2 1.8 2.7-1.5-3.2-1.8z"/><path d="m294.7 300.9-3-1.7-2.8 1.5 1.1.6-4.3 2.4 2 1.2z"/><path d="m271 304.3-3.2-1.8-1.3.7 3.2 1.8z"/><path d="m274.8 302.4 8.7 4.9 2.7-1.5-8.6-4.9z"/><path d="m274.2 307.5 1.3-.7-3.2-1.8-1.3.7z"/><path d="m232.9 264.5 3.2 1.8 2.7-1.6-3.2-1.8z"/><path d="m243.3 267.2-3.2-1.8-2.7 1.6 3.2 1.8z"/><path d="m255.9 271-3.5-2-1.4.8 3.4 2z"/><path d="m224.4 269.3 6.6 3.7 2.7-1.5-6.6-3.7z"/><path d="m252.2 272.3-3.2-1.8-2.7 1.5 3.2 1.8z"/><path d="m220.2 271.7 8.6 4.9 2.8-1.5-8.7-4.9z"/><path d="m244.3 275.7 3.2 1.8 2.7-1.6-3.2-1.8z"/><path d="m226.4 276.9-3.2-1.8h-.1l-3.2 1.8 3.2 1.8h.1z"/><path d="m264.8 277.6 3.5 1.9 1.4-.7-3.5-2z"/><path d="m241.2 278.7 3.2 1.8 2.7-1.5-3.2-1.8z"/><path d="m265.5 279.8-3.2-1.8-2.7 1.5 3.2 1.8z"/><path d="m234.6 279.8 3.2 1.8 2.7-1.5-3.2-1.8z"/><path d="m251.6 281.5-3.2-1.8-2.8 1.5 3.2 1.8z"/><path d="m256 284-3.2-1.8-2.7 1.5 3.2 1.8z"/><path d="m243.5 284.8 3.2 1.8 2.8-1.5-3.2-1.8z"/><path d="m283.5 286.5-3.5-1.9-1.4.8 3.5 1.9z"/><path d="m260.5 286.5-3.2-1.8-2.7 1.5 3.1 1.8z"/><path d="m264.9 289-3.2-1.8-2.7 1.5 3.2 1.8z"/><path d="m258.7 295.1-21.1-11.9h-.1l-3.2 1.8 21.1 11.9h.1z"/><path d="m259.2 294.9-.2.4z"/><path d="m301.9 296.9-3.4-2-1.5.8 3.5 2z"/><path d="m278.3 296.5-3.2-1.8-2.7 1.6 3.2 1.8z"/><path d="m299 298.6-5.5-3.1-2.7 1.5 5.4 3.1z"/><path d="m275.5 308.2 3.2 1.8 1.3-.7-3.2-1.8z"/><path d="m256.6 274.8-3.2-1.8-2.7 1.5 3.2 1.8z"/><path d="m242.7 276.5-3.2-1.8-2.8 1.5 3.2 1.8z"/><path d="m274.3 281.4-3.5-2-1.4.8 3.5 1.9z"/><path d="m282.8 299-3.2-1.8-2.8 1.6 3.2 1.8z"/><path d="m273.3 304.5 3.1 1.7 1.1-.5-3.2-1.8z"/><path d="m228.7 266.9 5.3 3 2.8-1.5-5.4-3z"/></g><path d="m438.4 280.6c1.6.9 2.6 3.3 2.3 5.3l-10.5 49.3c-.4 2-2 2.9-3.6 1.9l-61.1-34.3c-1.6-.9-2.6-3.3-2.3-5.3l10.5-49.3c.4-2 2-2.9 3.6-1.9zm-11.6 51.7 10.2-47.5-60-33.8-10.2 47.5z" fill="#707c8a"/><path d="m437 284.8-10.2 47.5-60-33.7 10.2-47.6z" fill="#2c3640"/><path d="m437 284.8-.9 2.8-60-33.4.9-3.2z" fill="#004860"/><path d="m439.5 280.3-61.1-34.3c-.7-.4-1.3-.4-1.9-.3l-1.1.3c.6-.2 1.2-.1 1.9.3l61.1 34.3c1.6.9 2.6 3.3 2.3 5.3l-10.5 49.3c-.2 1.2-.9 2-1.7 2.2l1.1-.3c.8-.3 1.5-1 1.7-2.2l10.5-49.3c.4-2.1-.6-4.4-2.3-5.3z" fill="#1c2936"/><path d="m427.7 336.4c1.2.7.8 2.6-.4 3.3l-40.3 22.9c-1.2.7-3.1.7-4.3 0l-62.7-35.3c-1.2-.7-1.7-2.6-.5-3.3l40.8-22.1c1.2-.7 3.1-.7 4.3 0zm-29.4 11.8 18.2-10.3c.7-.4.7-1.1 0-1.5l-50.2-28.2c-.7-.4-1.9-.4-2.6 0l-18.2 10.3c-.7.4-.7 1.1 0 1.5l50.2 28.2c.7.4 1.9.4 2.6 0m-33-.1 11.4-6.4c.7-.4.7-1.1 0-1.5l-17.1-9.6c-.7-.4-1.9-.4-2.6 0l-11.4 6.4c-.7.4-.7 1.1 0 1.5l17.1 9.6c.7.4 1.9.4 2.6 0" fill="#1c2936"/><g enable-background="new"><path d="m416.5 335.2c.7.4.7 1.1 0 1.5l-18.2 10.3c-.7.4-1.9.4-2.6 0l-50.2-28.2c-.7-.4-.7-1.1 0-1.5l18.2-10.3c.7-.4 1.9-.4 2.6 0z" fill="#4d555e"/><g fill="#1c2936"><path d="m364.1 308.2 2.8 1.5 1.1-.6-2.7-1.5z"/><path d="m367.8 310.2 2.7 1.6 1.1-.6-2.7-1.6z"/><path d="m371.4 312.3 2.8 1.5 1.1-.6-2.8-1.5z"/><path d="m367.8 314.1 2.5 1.4 2.2-1.2-2.5-1.5z"/><path d="m362.7 315 2.5 1.4 2.2-1.2-2.6-1.4z"/><path d="m382.6 317.3-2.8-1.5-1.1.6 2.7 1.5z"/><path d="m366.2 317 2.5 1.4 2.2-1.2-2.5-1.5z"/><path d="m360.2 317.4 2.6 1.4 2.1-1.2-2.5-1.4z"/><path d="m352 317.9-2.5-1.4h-.1l-2.5 1.4 2.5 1.4h.1z"/><path d="m382.3 318.4 2.8 1.6 1.1-.6-2.7-1.6z"/><path d="m378.4 320 2.5 1.4 2.2-1.2-2.6-1.4z"/><path d="m358.5 320.2 2.6 1.5 2.1-1.2-2.5-1.5z"/><path d="m373.3 320.9 2.5 1.5 2.2-1.3-2.6-1.4z"/><path d="m359.1 322-2.5-1.4h-.1l-2.5 1.4 2.5 1.4h.1z"/><path d="m381.5 323.1-2.5-1.4-2.2 1.2 2.5 1.4z"/><path d="m385.4 324 2.5 1.4 2.2-1.2-2.5-1.5z"/><path d="m365.6 324.2 2.5 1.4 2.2-1.2-2.5-1.4z"/><path d="m363.4 324.3-3.2-1.8h-.1l-2.5 1.4 3.2 1.8h.1z"/><path d="m397.2 325.5-2.8-1.5-1.1.6 2.7 1.5z"/><path d="m380.4 324.9 2.5 1.4 2.1-1.2-2.5-1.4z"/><path d="m393.6 326.2-2.5-1.5-2.2 1.2 2.6 1.5z"/><path d="m388.6 327.1-2.5-1.4-2.2 1.2 2.5 1.4z"/><path d="m397.1 328.1-2.5-1.4-2.2 1.2 2.6 1.4z"/><path d="m372.7 328.2 2.5 1.4 2.2-1.2-2.5-1.4z"/><path d="m404.4 329.6-2.7-1.5-1.1.6 2.7 1.5z"/><path d="m387.4 328.9 2.6 1.4 2.1-1.2-2.5-1.4z"/><path d="m400.7 330.1-2.6-1.4-2.1 1.2 2.5 1.4z"/><path d="m376.2 330.2 2.6 1.4 2.1-1.2-2.5-1.4z"/><path d="m404.2 330.7 2.8 1.6 1.1-.6-2.8-1.6z"/><path d="m395.7 331.1-2.6-1.4-2.1 1.2 2.5 1.4z"/><path d="m384.9 331.3 2.6 1.4 2.1-1.2-2.5-1.4z"/><path d="m404.2 332.1-2.5-1.4-2.2 1.2 2.5 1.4z"/><path d="m379.8 332.2 2.5 1.4 2.2-1.2-2.6-1.4z"/><path d="m407.9 332.8 2.7 1.5 1.1-.6-2.7-1.5z"/><path d="m394.5 332.9 2.5 1.4 2.2-1.2-2.5-1.4z"/><path d="m393.2 333.5-2.6-1.4-2.1 1.2 2.5 1.4z"/><path d="m407.7 334.1-2.5-1.5-2.2 1.3 2.5 1.4z"/><path d="m383.3 334.2 2.5 1.4 2.2-1.2-2.5-1.4z"/><path d="m402.7 335.1-2.5-1.4-2.2 1.2 2.6 1.4z"/><path d="m386.9 336.2 2.5 1.4 2.1-1.2-2.5-1.4z"/><path d="m385.8 336.6-.2.3z"/><path d="m385.4 336.7-3.2-1.8h-.1l-2.5 1.4 3.2 1.8h.1z"/><path d="m401.6 336.8 2.5 1.5 2.2-1.2-2.6-1.5z"/><path d="m390.4 338.2 2.5 1.4 2.2-1.2-2.5-1.5z"/><path d="m389.3 338.6-.1.3z"/><path d="m389 338.7-2.5-1.4h-.1l-2.5 1.4 2.5 1.4h.1z"/><path d="m399.1 339.2 2.5 1.4 2.1-1.2-2.5-1.4z"/><path d="m409.7 338.9-2.4-1.4-2.2 1.3.8.4-3.4 2 1.6.9z"/><path d="m390.9 341.6-2.5-1.4-1 .5 2.5 1.5z"/><path d="m393.9 340.1 6.9 3.9 2.2-1.2-6.9-3.9z"/><path d="m393.5 344.2 1-.6-2.6-1.4-1 .5z"/><path d="m360.8 310.1 2.5 1.4 2.2-1.2-2.6-1.4z"/><path d="m369 312.3-2.6-1.4-2.1 1.2 2.5 1.4z"/><path d="m378.9 315.3-2.7-1.6-1.1.6 2.7 1.6z"/><path d="m354 313.9 5.2 2.9 2.2-1.2-5.2-2.9z"/><path d="m376 316.3-2.5-1.5-2.2 1.2 2.6 1.5z"/><path d="m350.7 315.8 6.8 3.9 2.2-1.2-6.9-3.9z"/><path d="m369.7 318.9 2.6 1.5 2.1-1.2-2.5-1.5z"/><path d="m355.6 319.9-2.5-1.4h-.1l-2.5 1.4 2.5 1.4h.1z"/><path d="m386 320.5 2.7 1.5 1.2-.6-2.8-1.5z"/><path d="m367.3 321.4 2.5 1.4 2.2-1.2-2.5-1.4z"/><path d="m386.6 322.2-2.6-1.4-2.1 1.2 2.5 1.4z"/><path d="m362.1 322.2 2.5 1.5 2.2-1.3-2.6-1.4z"/><path d="m375.5 323.6-2.5-1.5-2.2 1.3 2.6 1.4z"/><path d="m379 325.6-2.5-1.5-2.1 1.2 2.5 1.5z"/><path d="m369.2 326.2 2.5 1.4 2.1-1.2-2.5-1.4z"/><path d="m400.8 327.6-2.7-1.6-1.2.6 2.8 1.6z"/><path d="m382.6 327.5-2.6-1.4-2.1 1.2 2.5 1.4z"/><path d="m386.1 329.5-2.5-1.4-2.2 1.2 2.5 1.4z"/><path d="m381.1 334.3-16.7-9.4h-.1l-2.5 1.4 16.7 9.4h.1z"/><path d="m381.5 334.2-.1.3z"/><path d="m415.4 335.8-2.8-1.6-1.1.6 2.7 1.6z"/><path d="m396.7 335.5-2.5-1.5-2.2 1.3 2.5 1.4z"/><path d="m413 337.1-4.3-2.5-2.2 1.2 4.4 2.5z"/><path d="m394.5 344.7 2.5 1.5 1-.6-2.5-1.4z"/><path d="m379.5 318.2-2.5-1.4-2.2 1.2 2.6 1.4z"/><path d="m368.5 319.6-2.6-1.4-2.1 1.2 2.5 1.4z"/><path d="m393.5 323.5-2.7-1.6-1.2.6 2.8 1.6z"/><path d="m400.2 337.5-2.5-1.5-2.2 1.2 2.6 1.5z"/><path d="m392.7 341.7 2.5 1.5.8-.5-2.5-1.4z"/><path d="m357.4 312 4.3 2.4 2.1-1.2-4.2-2.4z"/></g><path d="m376.6 339.1c.7.4.7 1.1 0 1.5l-11.4 6.4c-.7.4-1.9.4-2.6 0l-17.1-9.6c-.7-.4-.7-1.1 0-1.5l11.4-6.4c.7-.4 1.9-.4 2.6 0z" fill="#4d555e"/><path d="m427.3 336.1c1.2.7 1.2 1.8 0 2.4l-40.3 23c-1.2.7-3.1.7-4.3 0l-62.7-35.3c-1.2-.7-1.2-1.8 0-2.4l40.3-22.9c1.2-.7 3.1-.7 4.3 0zm-29 10.9 18.2-10.3c.7-.4.7-1.1 0-1.5l-50.2-28.2c-.7-.4-1.9-.4-2.6 0l-18.2 10.3c-.7.4-.7 1.1 0 1.5l50.2 28.2c.7.4 1.9.4 2.6 0m-33 0 11.4-6.4c.7-.4.7-1.1 0-1.5l-17.1-9.6c-.7-.4-1.9-.4-2.6 0l-11.4 6.4c-.7.4-.7 1.1 0 1.5l17.1 9.6c.7.4 1.9.4 2.6 0" fill="#66717d"/></g><path d="m411.9 241.9c-4-2.3-7.9-2.8-10.9-1.1-.8.5-.9 2 0 3.5.4.7 1 1.3 1.5 1.6.6.3 1.1.4 1.5.1 2.2-1.2 5-.8 7.9.8s5.7 4.5 7.9 8.3c.4.7 1 1.3 1.5 1.6.6.3 1.1.4 1.5.2.8-.5.9-2 0-3.5-3-5.2-7-9.2-10.9-11.5z" fill="#fff"/><path d="m412 212.5c-10.5-6.1-21-7.5-29.1-3-.8.5-.8 2 0 3.5.4.7 1 1.3 1.5 1.6s1.1.4 1.5.2c7.2-4.1 16.6-2.8 26 2.6s18.8 15 25.9 27.3c.4.7 1 1.3 1.5 1.6.6.3 1.1.4 1.5.2.8-.5.9-2 0-3.5-7.8-13.8-18.3-24.4-28.8-30.5z" fill="#fff"/><path d="m411.9 227c-7.5-4.3-15-5.4-20.7-2.1-.8.5-.8 2.1 0 3.5.4.7 1 1.3 1.5 1.6.6.3 1.1.4 1.5.1 4.9-2.8 11.3-1.9 17.7 1.8s12.8 10.2 17.6 18.6c.4.7 1 1.3 1.5 1.6.6.3 1.1.4 1.5.2.8-.5.9-2 0-3.5-5.6-9.9-13.1-17.5-20.6-21.8z" fill="#fff"/><path d="m257.3 290.9s5-4.5 6.1-4.8c4.1-1 14.1 5 12.9 6.6-3.6 4.9-9.8 7.5-13.1 6.7-2-.6-9.6-5.2-5.9-8.5z" fill="#e3976b"/><path d="m279.1 283.2s-.2.1-.4.2c-.3.1-.7.3-1.1.5-.9.4-2.1 1.1-3.3 1.8-.6.4-1.1.8-1.6 1.1-.2.2-.5.4-.7.6s-.4.4-.6.6-.3.4-.5.5c-.1.2-.2.3-.3.4-.2.3-.3.4-.3.4-.4.6-.1 1.4.7 1.8s1.8.3 2.2-.3l.1-.1s.1-.1.2-.3c.1-.1.1-.2.2-.3s.2-.3.3-.4.3-.3.4-.5c.2-.2.4-.3.5-.5.4-.3.9-.7 1.3-1.1 1-.7 2-1.3 2.9-1.8l1-.5c.2-.1.4-.2.4-.2.6-.3.7-.9.3-1.5-.3-.4-1.1-.6-1.7-.4z" fill="#e3976b"/><path d="m276.1 280.9s-.2.1-.5.2c-.3.2-.7.4-1.2.6-1 .5-2.3 1.3-3.6 2.1-.6.4-1.3.9-1.8 1.3-.3.2-.5.4-.8.7-.3.2-.5.4-.7.6s-.4.4-.5.6c-.1.1-.2.2-.2.3-.1.1-.1.2-.2.2-.2.3-.3.5-.3.5-.4.6-.1 1.4.7 1.8s1.8.3 2.2-.3l.1-.1s.1-.1.2-.3c0-.1.1-.1.1-.2s.1-.1.2-.2.2-.3.4-.5.3-.4.5-.6.4-.4.7-.6c.5-.4 1-.8 1.6-1.3 1.1-.8 2.3-1.6 3.3-2.2.5-.3.9-.5 1.1-.7.3-.2.4-.2.4-.2.6-.3.6-1 .2-1.5-.6-.3-1.4-.5-1.9-.2z" fill="#e3976b"/><path d="m269.5 281s-.1.1-.4.2c-.2.2-.6.4-1 .7-.8.6-1.8 1.3-2.8 2.2-.5.4-.9.9-1.4 1.3-.2.2-.4.4-.6.7-.2.2-.3.4-.5.6-.1.2-.3.4-.4.6s-.2.3-.3.5c-.1.3-.2.4-.2.4-.3.6.1 1.4.9 1.8s1.8.1 2.1-.5v-.1s.1-.1.1-.3c0-.1.1-.2.2-.4.1-.1.2-.3.3-.5s.2-.3.4-.5c.1-.2.3-.4.5-.6.3-.4.7-.8 1.1-1.2.8-.8 1.7-1.6 2.4-2.1.4-.3.7-.5.9-.7s.3-.2.3-.2c.5-.4.5-1 0-1.5-.3-.6-1.1-.7-1.6-.4z" fill="#e3976b"/><path d="m260.4 289.3s.4-2.8-1.1-4.1-2.2-.9-2.2-.9-.8.1.1 1.8c.3.7-1.9 6.8-.6 7.3 1.3.6 3.8-4.1 3.8-4.1z" fill="#e3976b"/><path d="m281.3 286.2s0 0-.1 0-.2.1-.4.1c-.3.1-.7.2-1.2.4s-1 .4-1.5.7-1.1.6-1.6 1c-.3.2-.5.4-.8.6s-.5.4-.7.6-.4.4-.6.6-.4.4-.5.5c-.3.3-.5.6-.7.9-.2.2-.2.3-.2.3-.4.6-.1 1.4.7 1.8s1.8.3 2.2-.3c0 0 0 0 0-.1v-.1s.1-.1.2-.3.3-.4.5-.7c.1-.1.2-.3.4-.5.1-.2.3-.3.5-.5l.5-.5c.2-.2.4-.3.6-.5.4-.3.9-.6 1.3-.9s.9-.5 1.3-.7.7-.3.9-.4c.1 0 .2-.1.2-.1h.1c.6-.2.9-.8.5-1.4-.2-.4-1-.7-1.6-.5z" fill="#e3976b"/><path d="m266.5 483.7s11.2 2.3 20.3 2.3c6.2 0 13 6 6.8 9.4-7.9 4.3-34.7 10-34.7 10s-8.3 2.2-12.3-3.4c-.7-1-1-2.3-.9-3.6l.7-10.2z" fill="#4d555e"/><path d="m246.5 488.2 10.8-2.4c5.8 5.5 13.3 9.1 21.3 10.2 4.2 1.1 8.3 1.1 12.5 0 1.4-.6 2.7-1.2 4.1-1.7-.4.4-.8.8-1.5 1.1-7.9 4.3-34.7 10-34.7 10s-8.3 2.2-12.3-3.4c-.7-1-1-2.3-.9-3.6z" fill="#00586c" opacity=".1"/><path d="m221.8 467s10.3 1.4 19.1 1.4c6 0 10.9 6.9 5.3 9.2l-30.7 9.7s-9.8 2.7-13.8-3c-.6-.9-.8-2-.6-3l2-10.8z" fill="#4d555e"/><path d="m202.7 472.4c13.8 6.2 30.2 6.5 45.2 4.1-.4.5-1 .9-1.7 1.2l-30.7 9.7s-9.8 2.7-13.8-3c-.6-.9-.8-2-.6-3z" fill="#00586c" opacity=".1"/><path d="m251 423.3c5.9-.7 16.7-24 16.7-24s15.2-3.7 21.6-.2l-21.3 85.5c-.1 3.1-1.6 6.1-7.5 7.7-9.4 2.5-14.1-2.4-14.1-2.4s5.6-42.7 4.6-66.6z" fill="#004169"/><path d="m250.3 391-29.9 79.1c-.2 4.1-4.5 6.8-8.6 7.3-8.8 1.2-11-3.6-11-3.6l21.7-72.1c1 .2 20.3-9.9 27.8-10.7z" fill="#004169"/><g enable-background="new" fill="#1c2936"><path d="m160.7 488.3-3-3.3c-1.1-1.2-2.9-1.6-5-.9l3 3.3c2.1-.7 4-.3 5 .9z"/><path d="m155.8 487.3c-3.3 1-6 4.3-6 7.4 0 3 2.7 4.7 6 3.7s5.9-4.3 5.9-7.3c0-3.2-2.6-4.8-5.9-3.8z"/><path d="m147.8 494.1 3 3.3c-.6-.7-1-1.6-1-2.7 0-3 2.6-6.3 6-7.4l-3-3.3c-3.3 1-6 4.3-6 7.4 0 1.1.4 2 1 2.7z"/></g><g enable-background="new" fill="#1c2936"><path d="m241.1 479-3-3.3c-1.1-1.2-2.9-1.6-5-.9l3 3.3c2.1-.7 3.9-.2 5 .9z"/><path d="m236.1 478.1c-3.3 1-6 4.3-6 7.4 0 3 2.7 4.7 6 3.7s5.9-4.3 5.9-7.3c0-3.2-2.6-4.8-5.9-3.8z"/><path d="m228.1 484.9 3 3.3c-.6-.7-1-1.6-1-2.7 0-3.1 2.6-6.3 6-7.4l-3-3.3c-3.3 1-6 4.3-5.9 7.4-.1 1.1.3 2 .9 2.7z"/></g><g enable-background="new" fill="#1c2936"><path d="m233.9 509.2-3-3.3c-1.1-1.2-2.9-1.6-5-.9l3 3.3c2.1-.7 4-.2 5 .9z"/><path d="m229 508.3c-3.3 1-6 4.3-6 7.4 0 3 2.7 4.7 6 3.7s5.9-4.3 5.9-7.3c0-3.2-2.6-4.8-5.9-3.8z"/><path d="m221 515.1 3 3.3c-.6-.7-1-1.6-1-2.7 0-3.1 2.6-6.3 6-7.4l-3-3.3c-3.3 1-6 4.3-6 7.4 0 1.1.4 2 1 2.7z"/></g><g enable-background="new" fill="#1c2936"><path d="m183.1 512.4-3-3.3c-1.1-1.2-2.9-1.6-5-.9l3 3.3c2.1-.7 4-.2 5 .9z"/><path d="m178.2 511.5c-3.3 1-6 4.3-6 7.4 0 3 2.7 4.7 6 3.7s5.9-4.3 5.9-7.3c0-3.2-2.7-4.8-5.9-3.8z"/><path d="m170.2 518.3 3 3.3c-.6-.7-1-1.6-1-2.7 0-3.1 2.6-6.3 6-7.4l-3-3.3c-3.3 1-6 4.3-6 7.4 0 1.1.4 2 1 2.7z"/></g><g enable-background="new" fill="#1c2936"><path d="m195.6 465.2-3-3.3c-1.1-1.2-2.9-1.6-5-.9l3 3.3c2.1-.7 3.9-.3 5 .9z"/><path d="m190.6 464.2c-3.3 1-6 4.3-6 7.4 0 3 2.7 4.7 6 3.7s5.9-4.3 5.9-7.3c0-3.2-2.6-4.8-5.9-3.8z"/><path d="m182.6 471 3 3.3c-.6-.7-1-1.6-1-2.7 0-3.1 2.6-6.3 6-7.4l-3-3.3c-3.3 1-6 4.3-6 7.4 0 1.1.4 2.1 1 2.7z"/></g><g enable-background="new" fill="#1c2936"><path d="m185.3 459.7v3.7.3-3.7c0-.1 0-.2 0-.3z"/><path d="m239.9 477v-3.7c0 .6-.4 1.2-1.3 1.7-.3.2-.6.3-1 .4v3.7c.4-.1.7-.3 1-.4 1-.5 1.3-1.1 1.3-1.7z"/><path d="m185.3 460v3.7l3.2 12.4-.1-3.7z"/><path d="m149 480.8v3.7c0 1.1 1.1 2.2 3.5 2.5v-3.7c-2.4-.4-3.5-1.5-3.5-2.5z"/><path d="m207.8 478.1v3.7l29.9-2.7v-3.7z"/><path d="m152.5 483.2v3.8l33.8-3.2v-3.7z"/><path d="m198.2 483.6.1 3.7 25.9 20.9v-3.8z"/><path d="m231.8 506.2v-3.7c0 .7-.5 1.4-1.4 1.9-1.5.9-4 1.2-6.2.1v3.7c2.1 1.1 4.6.8 6.2-.1.8-.5 1.4-1.2 1.4-1.9z"/><path d="m180.4 508.5.1 3.7 17.8-24.9-.1-3.7z"/><path d="m172 507.2v3.7c0 2.1 4.9 3.4 7.6 1.8.3-.2.5-.4.8-.6v-3.7c-.2.2-.5.4-.8.6-2.7 1.7-7.6.4-7.6-1.8z"/><path d="m150.3 478.8c-2.2 1.3-1.8 3.9 2.1 4.4l33.8-3.2-13.9 26.1c-2.1 2.8 4 4.8 7.2 2.9.3-.2.5-.4.8-.6l17.8-24.9 26 20.9c2.1 1.1 4.6.8 6.2-.1 1.5-.9 2.1-2.3.2-3.6l-22.8-22.7 29.9-2.7c.4-.1.7-.3 1-.4 3.2-1.9-.3-5.4-5.1-4.2l-31.9.4-7.5-12c-.9-2.3-5.4-2.5-7.7-1.3-.8.5-1.4 1.2-1.2 2.1l3.1 12.4-34.5 5.7c-1.4 0-2.6.3-3.5.8z"/></g><path d="m202.2 399.8c.7.3 1.3.6 2 .7l.2 76.8c0 1-.7 2-2 2.8-2.7 1.6-7.1 1.6-9.8 0-1.4-.8-2-1.8-2-2.9l-.2-83.5c3.9 2.1 7.9 4 11.8 6.1z" fill="#1c2936"/><path d="m147.4 398.7c-8.7 5-8.8 13.2-.1 18.2l49.3 28.6c8.6 5 22.7 5 31.4 0l49.6-28.6c8.7-5 8.7-13.2.1-18.2l-49.3-28.6c-8.6-5-22.7-5-31.4 0z" fill="#393939"/><path d="m222 422.7c-6 3.8-10 3.7-16.7 1.1-13.2-5.1-24.4-14.8-36.4-22.1-4.3-2.6-8.5-5.4-12.9-7.9l31.5-32.7c5.4-3.1 41.1-13.8 48.4-11.6l16.6 9.5c2.7 4.7.7 10.4.7 10.4s14.4-2.3 16.8-1.2l22.2 13.7c.7 5.2-4.7 24.2-4.7 24.2-1.2-8.5-17.6-10.6-22.4-7.6-12.5 7.7-37.6 20.7-43.1 24.2z" fill="#004169"/><path d="m152.8 256.7c3.8-19.7 16.7-25.6 22.4-26.9 8.4-1.8 15.3.4 29.8 5.3 6 2 10.4 7.2 21.6 12.8 9.7 4.9 14.4 15.6 16 19.5 5.8 14.4-9.9 29.4-12.1 45.8-4.5 32.6-.1 68.7-.1 68.7s-2.5 12.7-18.3 12.8c-18.4.1-56.1-17.8-56.1-17.8s1.6-28.1-1-38.5c-5.4-21.4-4.6-69.5-2.2-81.7z" fill="#1c2936"/><path d="m216.7 219.8-2.7 18.4c-.7 6.8-23.7 1.9-23-5l2.8-15.8z" fill="#e3976b"/><path d="m191.7 229c2.2 5.4 14.8 8.9 22.7 6.8l2.4 6.8c-5.4 6.2-22 1.2-27-3.5-3.9-3.6-1.6-7.6-1.6-7.6z" fill="#fff"/><path d="m222.4 217.6c-3 11.1-6.6 13.4-16.7 13 0 0-19.4-2.9-18.9-13.3l-1.3-19.3 41.4-3.6z" fill="#e3976b"/><path d="m215.7 179.7c8.1 4 20.7 12.9 7.8 21.1 0 0-2.8 2.3-3.1 10.4s-9.2 14.7-15.8 19.4c-4.8 3.4-12.9-1.6-12.9-1.6s-13.6-15.9-6.4-39.3c4.3-14.3 24.7-12.8 30.4-10z" fill="#81524f"/><path d="m221.1 211.8-2.4 7.4c-3.2 1.6-2.3-3.8-1.6-8.4 1-6.1 4 1 4 1z" fill="#e3976b"/><path d="m218.9 449.2-9.9-108c-.5-8.3-5.2-15.9-12.3-20.1l-33.2-19.7c-9.3-5.5-21.2.9-21.6 11.7l-1.1 95.2z" fill="#393939"/><path d="m220.2 439.6c19.4-9.7 63.6-31.8 63.9-31.9 0 3.3-2.2 6.6-6.5 9.2l-49.6 28.7c-8.7 5-22.8 5-31.4 0l-49.3-28.6c-5.1-3-7.1-7-6.2-10.8 0 .1 42.5 23.1 61.3 33.3 5.5 2.9 12.2 3 17.8.1z" fill="#1c2936"/><path d="m242.9 268.4 2.3 8.1 2.3 7.9c.8 2.6 1.6 5.3 2.4 7.9s1.6 5.3 2.5 7.9c.4 1.3.9 2.6 1.3 3.9l1.3 3.9 1.4 3.9 1.4 3.8c.9 2.6 1.9 5.1 2.9 7.6.5 1.2 1 2.5 1.5 3.7l.8 1.8.7 1.6-17-4c-.3.2-.6.5-.9.8-.2.2-.4.4-.5.5l-.2.2-.1.2c-.1.1-.2.3-.2.3l-.1.2-.1.1-.1.1v.1c0 .2.1.1.2-.1.2-.3.5-.8.8-1.4.6-1.1 1.2-2.5 1.8-3.8 1.2-2.8 2.3-5.7 3.4-8.6 1-3 2-6 2.9-8.9.9-3 1.7-6 2.2-8.9v-.2c.8-3.9 4.6-6.5 8.6-5.7 3.4.7 5.8 3.6 5.8 7 .1 3.7-.1 7.2-.3 10.6-.2 3.5-.6 6.9-1 10.4-.4 3.4-.9 6.9-1.6 10.4-.3 1.8-.7 3.6-1.3 5.5-.3 1-.6 2-1 3.2-.2.6-.5 1.3-1 2.1l-.2.3-.2.4c-.1.1-.1.2-.2.4l-.3.5c-.1.1-.3.4-.4.6l-.2.3-.1.1-.2.2c-.2.3-.5.5-.7.8-.4.3-.8.7-1.2 1-5.1 3.8-12.3 2.7-16-2.4-.3-.4-.6-.8-.8-1.2l-.2-.3c-.5-.9-.8-1.5-1.2-2.2l-1-2c-.7-1.3-1.3-2.7-2-4-1.3-2.7-2.5-5.3-3.7-8l-1.8-4-1.7-4-1.7-4c-.6-1.3-1.1-2.7-1.6-4-1.1-2.7-2.1-5.4-3.2-8-1.1-2.7-2-5.4-3.1-8.1l-3-8.2-2.8-8c-2.5-7.2 1.3-15.1 8.5-17.6s15.1 1.3 17.6 8.5c.1.2.2.5.3.8z" fill="#1c2936"/><g enable-background="new"><path d="m405.5 372.8c-.2-.1-.5-.1-.7 0s-.2.3 0 .4.5.1.7 0 .2-.3 0-.4z" fill="#90b7be"/><path d="m406.8 373.6c-.2-.1-.5-.1-.7 0s-.2.3 0 .4l4.8 2.7c.2.1.5.1.7 0s.2-.3 0-.4z" fill="#90b7be"/><path d="m398.1 371-28.1 16.3 16.6 9.6 28.1-16.3z" fill="#004860"/><path d="m417.9 378.3c.5.3.5.8 0 1.1l-32.5 18.9c-.5.3-1.4.3-1.9 0l-16-9.2c-.5-.3-.5-.8 0-1.1l32.5-18.9c.5-.3 1.4-.3 1.9 0zm-47.9 9 16.6 9.6 28.1-16.3-16.6-9.6zm41.6-11-4.8-2.7c-.2-.1-.5-.1-.7 0s-.2.3 0 .4l4.8 2.7c.2.1.5.1.7 0s.2-.3 0-.4m-6.1-3.5c-.2-.1-.5-.1-.7 0s-.2.3 0 .4.5.1.7 0 .2-.3 0-.4" fill="#1c2936"/><path d="m367.1 388.6c0 .2.1.4.4.5l16 9.2c.5.3 1.4.3 1.9 0l32.5-18.9c.3-.2.4-.3.4-.5v1.6c0 .2-.1.4-.4.5l-32.5 18.9c-.5.3-1.4.3-1.9 0l-16-9.2c-.3-.2-.4-.4-.4-.5z" fill="#335d64"/></g><path d="m317 267.5c.9.5.9 1.4 0 1.9l-13.4 7.8c-.9.5-2.4.5-3.3 0l-21.8-12.6c-.9-.5-.9-1.4 0-1.9l13.4-7.8c.9-.5 2.4-.5 3.3 0z" fill="#4d555e"/><path d="m317.7 268.5-9-43.9-18.2-8.5 1.4 38.8z" fill="#58616b"/><g enable-background="new"><path d="m251.3 211.2 1.9-1 2.6-68.5-1.9 1z" fill="#1c2936"/><path d="m339.1 261.9 1.9-1-87.8-50.7-1.9 1z" fill="#1c2936"/><path d="m341.8 193.4 1.9-1-87.9-50.7-1.9 1z" fill="#335362"/><path d="m253.9 142.7-2.6 68.5 87.8 50.7 2.7-68.5z" fill="#2c3640"/><path d="m253.9 142.7-.1 4.7 87.9 50.7.1-4.7z" fill="#004860"/><g fill="#1c2936"><path d="m346.6 189.4c1.9 1.1 3.3 3.7 3.2 5.9l-2.9 73.8c-.1 2.2-1.7 3.1-3.5 2l-96.9-56c-1.9-1.1-3.3-3.7-3.2-5.9l2.9-73.8c.1-2.2 1.7-3.1 3.5-2zm-95.3 21.8 87.9 50.7 2.6-68.5-87.9-50.7z"/><path d="m249.1 132.2c.6-.3 1.5-.3 2.4.2l96.9 56c1.9 1.1 3.3 3.7 3.2 5.9l-2.9 73.8c0 1.1-.5 1.9-1.1 2.3l-1.9 1c.7-.4 1.1-1.1 1.1-2.3l2.9-73.8c.1-2.2-1.4-4.8-3.2-5.9l-96.9-56c-.9-.5-1.8-.6-2.4-.2z"/></g></g><path d="m269.8 168-.1 2.5-10.1-5.8.2-2.5z" fill="#393939"/><g enable-background="new"><path d="m272.9 190.7-.2 2.5-14.1-8.2.1-2.5z" fill="#393939"/><path d="m282.4 190.9-.2 2.5-14.8-8.5.1-2.5z" fill="#393939"/><g fill="#004860"><path d="m290 190.1-.2 2.5-22.1-12.8.1-2.5z"/><path d="m297.1 188.9-.2 2.5-14.7-8.5.1-2.5z"/></g></g><path d="m279.8 179-.1 2.5-11.8-6.8.2-2.5z" fill="#e31c79"/><path d="m289 179-.1 2.5-16.7-9.6.1-2.5z" fill="#e31c79"/><path d="m277.4 167.1-.1 2.5-17.4-10 .1-2.5z" fill="#393939"/><path d="m286.2 219.3-.2 2.5-9.5-5.5.1-2.5z" fill="#e31c79"/><path d="m293.3 218.2-.1 2.5-10.3-6 .1-2.5z" fill="#004860"/><path d="m298 210.4-.2 2.5-17-9.9.1-2.5z" fill="#fff"/><path d="m309.2 201.2-.1 2.5-16.8-9.7.2-2.5z" fill="#fff"/><path d="m301.3 222.8-.1 2.5-5.5-3.2.1-2.5z" fill="#393939"/><path d="m322.6 235.1-.1 2.5-18.8-10.8.1-2.5z" fill="#004860"/><path d="m303.2 229.1-.1 2.5-14.6-8.4.2-2.5z" fill="#fff"/><path d="m310.5 222.9-.1 2.5-24-13.9.1-2.5z" fill="#fff"/><g enable-background="new"><path d="m320.8 223.6-.1 2.5-20.4-11.8.2-2.5z" fill="#fff"/><path d="m317.4 211.1-.2 2.5-12.8-7.4.2-2.5z" fill="#e31c79"/><path d="m334.5 215.8-.1 2.5-22.8-13.2.1-2.5z" fill="#393939"/></g><path d="m302.1 202.3-.2 2.5-17.2-9.9.2-2.5z" fill="#fff"/><path d="m322.5 203.6-.1 2.5-23-13.2.2-2.5z" fill="#fff"/><path d="m278.4 199.1-.1 2.5-11.4-6.6.1-2.5z" fill="#004860"/><path d="m283.4 196.8-.1 2.5-8.1-4.7.2-2.5z" fill="#004860"/><g enable-background="new"><path d="m274.1 212.3-.1 2.5-8-4.5.2-2.6z" fill="#393939"/><path d="m280.5 210.8-.1 2.5-14.1-8.1.2-2.5z" fill="#004860"/><path d="m284 207.6-.1 2.5-17.3-10 .1-2.5z" fill="#e31c79"/></g><path d="m319 238.3-.1 2.5-13.3-7.7.1-2.5z" fill="#e31c79"/><path d="m333.7 231-.2 2.5-10.3-6 .1-2.5z" fill="#004860"/><path d="m389.9 290.9-.3 1.7-7.3-4.2.3-1.7z" fill="#004860"/><path d="m393.4 285.4-.3 1.7-9.5-5.5.3-1.6z" fill="#393939"/><path d="m402.4 298.1-.4 1.7-10.8-6.3.3-1.7z" fill="#fff"/><path d="m406 292.7-.4 1.6-10.9-6.3.3-1.7z" fill="#393939"/><path d="m386.9 285.4-.4 1.6-9-5.2.3-1.6z" fill="#393939"/><path d="m393.6 289.3-.3 1.6-5.2-2.9.3-1.7z" fill="#004860"/><path d="m398.7 284.7-.3 1.7-14.1-8.2.3-1.6z" fill="#004860"/><path d="m392.7 277.5-.3 1.7-7.5-4.3.4-1.7z" fill="#e31c79"/><path d="m403.7 283.9-.3 1.6-9.4-5.4.3-1.7z" fill="#004860"/><path d="m399.1 277.4-.3 1.7-10.7-6.1.4-1.7z" fill="#e31c79"/><path d="m392.2 269.7-.3 1.7-11.1-6.4.3-1.7z" fill="#393939"/><path d="m386.9 270.4-.4 1.6-6.4-3.7.4-1.6z" fill="#e31c79"/><path d="m420 293.2-.4 1.7-14.6-8.4.3-1.7z" fill="#fff"/><path d="m411 291.8-.3 1.7-10.7-6.2.3-1.7z" fill="#fff"/><path d="m404.3 310.5-.4 1.6-9.2-5.3.3-1.7z" fill="#fff"/><path d="m403.6 306.3-.4 1.7-3.5-2.1.3-1.6z" fill="#393939"/><path d="m393.4 304.2-.3 1.6-6.1-3.5.3-1.6z" fill="#e31c79"/><path d="m398.4 303.3-.3 1.7-6.5-3.8.3-1.6z" fill="#004860"/><path d="m416.9 306.5-.3 1.7-13-7.5.4-1.7z" fill="#393939"/><path d="m417.1 314.1-.3 1.7-12-6.9.4-1.7z" fill="#393939"/><path d="m409.9 306.2-.3 1.7-15.3-8.9.3-1.6z" fill="#fff"/><path d="m415.7 298.3-.3 1.7-8.2-4.8.4-1.6z" fill="#e31c79"/><path d="m385.7 299.7-.3 1.7-5.1-2.9.4-1.7z" fill="#393939"/><path d="m390.3 298.6-.3 1.7-9-5.2.3-1.7z" fill="#004860"/><path d="m393 296.4-.3 1.7-11.1-6.4.4-1.6z" fill="#e31c79"/><path d="m425.1 311.2-.3 1.7-6.6-3.8.3-1.7z" fill="#004860"/><path d="m434.3 100.8c7.9 4.6 14.4 15.2 14.3 23.7l-.2 62.4c0 8.5-6.5 11.6-14.4 7.1l-91.2-52.6-31 14.7.3-110.3c0-8.5 6.5-11.6 14.4-7.1z" fill="#fff" opacity=".8"/><path d="m356.2 85.1v9.7l-13.5 1.9 13.5 17.1-.1 10.2-25-31.6v-4.4z" fill="#004860"/><path d="m399.5 105.3-29.6 31.5-8.8-5.1 29.6-31.6z" fill="#004860"/><path d="m404.3 112.8 25.1 32v4.4l-25.2 2.6v-10.3l13.6-1.5-13.5-17.5z" fill="#004860"/></svg>